<svg width="64" height="64" viewBox="0 0 64 64" xmlns="http://www.w3.org/2000/svg">
  <defs>
    <linearGradient id="grad" x1="0%" y1="0%" x2="100%" y2="100%">
      <stop offset="0%" stop-color="#9D3DFF"/>
      <stop offset="100%" stop-color="#007BFF"/>
    </linearGradient>
  </defs>
  <rect width="64" height="64" rx="12" fill="url(#grad)"/>
  <g fill="#fff">
    <path d="M16 16h22l-7 9 8 6s-7 9-8 18l-11 4c0-2 3-14 3-18l12-13-5-4h-14v24h24v-6l4-3v13c0 2-2 4-4 4h-24c-2 0-4-2-4-4v-32c0-2 2-4 4-4z"/>
    <path d="M38 26l10-13c2-2 5-2 7 0s2 5 0 7l-9 11-8-6z"/>
    <circle cx="32" cy="40" r="1.5"/>
    <text x="18" y="24" font-family="Arial" font-size="7" font-weight="bold">BV</text>
    <rect x="18" y="28" width="10" height="2" rx="1"/>
    <rect x="18" y="32" width="10" height="2" rx="1"/>
    <rect x="18" y="36" width="10" height="2" rx="1"/>
  </g>
</svg>
